<svg width="1994" height="1994" viewBox="0 0 1994 1994" fill="none" xmlns="http://www.w3.org/2000/svg">
<rect width="1994" height="1994" rx="400" fill="#F7F7F7"/>
<path d="M1423.38 1141.3L1173.29 997L1423.38 852.701C1437.48 844.569 1442.3 826.575 1434.17 812.482L1375.25 710.5C1367.12 696.425 1349.11 691.586 1335.02 699.718L1084.93 844.017V555.438C1084.93 539.173 1071.73 526 1055.47 526H937.646C921.382 526 908.191 539.173 908.191 555.438V844.035L658.101 699.736C644.007 691.604 625.995 696.443 617.863 710.518L558.951 812.482C550.819 826.557 555.64 844.569 569.733 852.701L819.823 997L569.733 1141.3C555.64 1149.43 550.819 1167.44 558.951 1181.52L617.863 1283.5C625.995 1297.58 644.007 1302.4 658.101 1294.28L908.191 1149.98V1438.56C908.191 1454.83 921.382 1468 937.646 1468H1055.47C1071.73 1468 1084.93 1454.83 1084.93 1438.56V1149.96L1335.02 1294.26C1349.11 1302.4 1367.12 1297.58 1375.25 1283.48L1434.17 1181.5C1442.3 1167.42 1437.48 1149.43 1423.38 1141.3Z" fill="black"/>
</svg>
